<svg width="250" height="auto" viewBox="0 0 341 85" fill="none" xmlns="http://www.w3.org/2000/svg">
<path d="M24.65 36.673C24.9167 36.173 25.3667 35.823 26 35.623C26.6333 35.423 27.4333 35.323 28.4 35.323C29.3667 35.323 30.1333 35.4063 30.7 35.573C31.2667 35.7396 31.7 35.9396 32 36.173C32.3 36.4063 32.5333 36.7396 32.7 37.173C32.8667 37.7396 32.95 38.6063 32.95 39.773V67.523C32.95 68.2896 32.9167 68.873 32.85 69.273C32.8167 69.6396 32.6667 70.073 32.4 70.573C31.9333 71.473 30.6333 71.923 28.5 71.923C26.1667 71.923 24.8 71.3063 24.4 70.073C24.2 69.5063 24.1 68.6396 24.1 67.473V57.323H10.85V67.523C10.85 68.2896 10.8167 68.873 10.75 69.273C10.7167 69.6396 10.5667 70.073 10.3 70.573C9.83333 71.473 8.53333 71.923 6.4 71.923C4.06667 71.923 2.7 71.3063 2.3 70.073C2.1 69.5063 2 68.6396 2 67.473V39.723C2 38.9563 2.01667 38.3896 2.05 38.023C2.11667 37.623 2.28333 37.173 2.55 36.673C3.01667 35.773 4.31667 35.323 6.45 35.323C8.78333 35.323 10.1667 35.9396 10.6 37.173C10.7667 37.7396 10.85 38.6063 10.85 39.773V49.973H24.1V39.723C24.1 38.9563 24.1167 38.3896 24.15 38.023C24.2167 37.623 24.3833 37.173 24.65 36.673ZM100.193 37.623C100.193 36.8563 100.21 36.2896 100.243 35.923C100.31 35.523 100.46 35.073 100.693 34.573C101.16 33.673 102.46 33.223 104.593 33.223C106.627 33.223 107.893 33.673 108.393 34.573C108.66 35.073 108.81 35.523 108.843 35.923C108.91 36.323 108.943 36.9063 108.943 37.673V60.823C108.943 62.023 109.043 62.7896 109.243 63.123C109.443 63.423 109.877 63.573 110.543 63.573C111.243 63.573 111.71 63.6063 111.943 63.673C112.177 63.7063 112.46 63.8396 112.793 64.073C113.46 64.5063 113.793 65.6896 113.793 67.623C113.793 69.723 113.46 71.0063 112.793 71.473C111.927 72.073 109.86 72.173 106.593 71.773C104.027 71.4396 102.36 70.5896 101.593 69.223C100.66 67.5896 100.193 64.9896 100.193 61.423V37.623ZM141.463 55.673C141.463 57.7063 140.946 59.223 139.913 60.223C138.913 61.1896 137.796 61.673 136.563 61.673H124.713C124.713 62.6063 125.263 63.3896 126.363 64.023C127.463 64.6563 128.563 64.973 129.663 64.973C131.596 64.973 133.113 64.773 134.213 64.373L134.763 64.173C135.563 63.8063 136.229 63.623 136.763 63.623C137.829 63.623 138.746 64.373 139.513 65.873C139.946 66.773 140.163 67.5396 140.163 68.173C140.163 71.1396 136.613 72.623 129.513 72.623C127.046 72.623 124.846 72.2063 122.913 71.373C121.013 70.5063 119.529 69.373 118.463 67.973C116.363 65.273 115.313 62.2563 115.313 58.923C115.313 54.723 116.663 51.373 119.363 48.873C122.096 46.3396 125.496 45.073 129.563 45.073C134.196 45.073 137.596 46.7063 139.762 49.973C140.896 51.7063 141.463 53.6063 141.463 55.673ZM130.913 57.123C132.179 57.123 132.813 56.5896 132.813 55.523C132.813 54.7563 132.513 54.1396 131.913 53.673C131.346 53.2063 130.513 52.973 129.413 52.973C128.346 52.973 127.279 53.423 126.213 54.323C125.146 55.1896 124.613 56.123 124.613 57.123H130.913ZM266.95 45.823C269.083 46.7563 270.15 47.9063 270.15 49.273C270.15 49.8396 269.883 50.7563 269.35 52.023C268.817 53.2563 268.367 54.3396 268 55.273L262.5 68.673C262 70.1396 261.167 71.173 260 71.773C259.5 72.0063 258.867 72.123 258.1 72.123C257.333 72.123 256.583 71.8396 255.85 71.273C255.15 70.673 254.683 70.073 254.45 69.473L254.05 68.623C253.783 67.9563 252.8 65.3563 251.1 60.823C250.767 61.623 250.267 62.9396 249.6 64.773C248.967 66.573 248.55 67.7063 248.35 68.173C248.183 68.6063 248.067 68.9063 248 69.073C247.967 69.2063 247.833 69.473 247.6 69.873C247.367 70.273 247.1 70.623 246.8 70.923C246 71.723 245.083 72.123 244.05 72.123C243.017 72.123 242.15 71.8396 241.45 71.273C240.75 70.673 240.283 70.073 240.05 69.473L232.5 51.073C232.167 50.073 232 49.423 232 49.123C232 47.7896 232.95 46.7396 234.85 45.973C235.917 45.5396 236.783 45.323 237.45 45.323C238.117 45.323 238.65 45.473 239.05 45.773C239.483 46.0396 239.783 46.323 239.95 46.623C240.117 46.8896 240.25 47.173 240.35 47.473C240.917 48.8063 242.1 51.9396 243.9 56.873L246.85 48.773C247.05 48.1063 247.417 47.523 247.95 47.023C248.917 46.0563 249.9 45.573 250.9 45.573C251.9 45.573 252.75 45.8396 253.45 46.373C254.183 46.9063 254.683 47.4396 254.95 47.973L255.35 48.823C257.017 53.4896 258 56.1563 258.3 56.823L261.35 48.523C262.15 46.3896 263.35 45.323 264.95 45.323C265.583 45.323 266.25 45.4896 266.95 45.823ZM289.022 48.423C289.222 46.5563 290.539 45.623 292.972 45.623C294.272 45.623 295.239 45.723 295.872 45.923C296.505 46.123 296.939 46.473 297.172 46.973C297.439 47.473 297.589 47.923 297.622 48.323C297.689 48.6896 297.722 49.2563 297.722 50.023V67.523C297.722 68.2896 297.689 68.873 297.622 69.273C297.589 69.6396 297.455 70.073 297.222 70.573C296.755 71.4396 295.605 71.873 293.772 71.873C291.972 71.873 290.755 71.6563 290.122 71.223C289.522 70.7563 289.172 70.0896 289.072 69.223C287.839 70.9896 285.772 71.873 282.872 71.873C280.005 71.873 277.339 70.5563 274.872 67.923C272.405 65.2896 271.172 62.2396 271.172 58.773C271.172 55.273 272.405 52.223 274.872 49.623C277.372 46.9896 280.105 45.673 283.072 45.673C284.205 45.673 285.239 45.873 286.172 46.273C287.105 46.673 287.755 47.0563 288.122 47.423C288.489 47.7563 288.789 48.0896 289.022 48.423ZM279.922 58.823C279.922 59.923 280.355 60.923 281.222 61.823C282.089 62.6896 283.139 63.123 284.372 63.123C285.605 63.123 286.622 62.673 287.422 61.773C288.255 60.873 288.672 59.8896 288.672 58.823C288.672 57.723 288.272 56.7063 287.472 55.773C286.705 54.8396 285.655 54.373 284.322 54.373C283.022 54.373 281.955 54.8396 281.122 55.773C280.322 56.7063 279.922 57.723 279.922 58.823ZM310.907 63.123C312.007 63.123 312.824 63.4063 313.357 63.973C313.89 64.5396 314.157 65.7063 314.157 67.473C314.157 69.2396 313.874 70.423 313.307 71.023C312.74 71.5896 311.924 71.873 310.857 71.873C307.49 71.873 305.124 71.073 303.757 69.473C302.39 67.8396 301.707 65.1396 301.707 61.373V37.523C301.707 36.7563 301.724 36.1896 301.757 35.823C301.824 35.423 301.974 34.973 302.207 34.473C302.674 33.6063 303.974 33.173 306.107 33.173C308.14 33.173 309.407 33.6396 309.907 34.573C310.174 35.0396 310.324 35.473 310.357 35.873C310.424 36.2396 310.457 36.8063 310.457 37.573V61.573C310.457 62.6063 310.607 63.123 310.907 63.123ZM323.957 61.573C323.957 62.2063 324.09 62.623 324.357 62.823C324.624 63.023 325.307 63.123 326.407 63.123C327.507 63.123 328.424 63.4063 329.157 63.973C329.89 64.5396 330.257 65.7063 330.257 67.473C330.257 69.2396 329.857 70.423 329.057 71.023C328.29 71.5896 327.207 71.873 325.807 71.873C318.74 71.873 315.207 68.373 315.207 61.373L315.157 37.523C315.157 36.7563 315.174 36.1896 315.207 35.823C315.274 35.423 315.44 34.973 315.707 34.473C316.207 33.6063 317.507 33.173 319.607 33.173C321.64 33.173 322.907 33.6396 323.407 34.573C323.774 35.3063 323.957 36.3063 323.957 37.573V61.573Z" fill="#FDB900"/>
<path d="M40.1171 31.0963C39.4039 31.3417 38.6906 31.9823 38.3277 32.7046C38.0524 33.2634 38.0524 33.3997 38.0149 38.7289C37.9648 44.5624 38.0149 45.1075 38.578 46.3615C39.0535 47.3701 39.6291 48.0924 40.5426 48.7603C41.9066 49.7552 41.9691 50.1369 41.6188 54.8799C41.1307 61.722 40.9555 65.2248 40.943 69.0547C40.9305 72.8301 40.943 72.9664 41.2183 73.7296C41.6813 74.9563 42.1944 75.5969 43.1704 76.1421C43.9463 76.5646 44.134 76.6191 44.9849 76.6055C46.2487 76.5919 47.0496 76.2239 47.8755 75.2289C48.8515 74.0704 49.0017 73.348 49.0017 69.9815V67.2692L49.6399 68.1279C52.2927 71.6716 55.5212 74.0704 59.513 75.5151C64.4558 77.287 69.5738 77.028 74.4665 74.7519C77.7701 73.2117 81.2989 70.0633 83.1884 67.0103C83.3761 66.6832 83.3886 66.874 83.3761 70.2132C83.3511 73.6479 83.3636 73.7705 83.6389 74.3293C84.0643 75.2153 84.6149 75.8286 85.3532 76.2102C87.0926 77.137 89.1698 76.5373 90.1834 74.8064C90.8341 73.6751 90.8466 73.5661 90.6839 67.5554C90.5338 61.8583 90.246 54.2121 90.0958 52.1268C89.9957 50.5321 90.1208 50.1777 91.2971 48.7875C92.4108 47.4927 93.2367 45.8981 93.6997 44.1671C94.1001 42.6678 94.1001 39.4104 93.6997 37.7748C92.7862 34.0948 90.5463 31.4916 87.8559 30.9873C85.3532 30.5239 82.6628 32.2957 81.2613 35.3351C80.961 36.003 80.6732 36.6845 80.6357 36.8617C80.5606 37.1615 80.473 37.107 79.1841 35.9757C72.7272 30.3058 63.8551 29.2972 56.4722 33.3997C55.2334 34.0948 53.7193 35.1716 52.7933 36.0166C52.4429 36.3437 52.1175 36.6163 52.08 36.6163C52.0425 36.6163 52.0049 35.9621 52.0049 35.1716C52.0049 34.3674 51.9423 33.4815 51.8548 33.1953C51.5294 32.0095 50.1654 30.8919 49.0517 30.8919C48.4261 30.8919 47.5376 31.219 47.1872 31.5734C46.9245 31.8323 46.9245 31.8323 46.3113 31.5052C45.4854 31.0418 44.5094 31.0418 43.696 31.4916L43.0953 31.8187L42.6699 31.5052C42.282 31.219 41.2308 30.8783 40.8304 30.9055C40.7428 30.9055 40.43 31.0009 40.1171 31.0963ZM41.7189 33.5633C41.9942 33.904 41.9942 33.9586 41.9942 37.584V41.264L42.307 41.5911C42.4947 41.8092 42.7575 41.9319 42.9952 41.9319C43.233 41.9319 43.4958 41.8092 43.6835 41.5911L43.9963 41.264V37.6385V34.0131L44.3092 33.686C44.4969 33.4679 44.7596 33.3452 44.9974 33.3452C45.2351 33.3452 45.4979 33.4679 45.6856 33.686L45.9985 34.0131V37.6385V41.264L46.3113 41.5911C46.7117 42.0409 47.2873 42.0409 47.6878 41.5911L48.0006 41.264V37.5022V33.7405L48.3134 33.4134C48.5012 33.1953 48.7639 33.0726 49.0017 33.0726C49.2394 33.0726 49.5022 33.1953 49.6899 33.4134L50.0028 33.7405V38.9606C50.0028 41.9591 49.9527 44.3852 49.8776 44.6578C49.6399 45.5709 49.0517 46.3887 48.1383 47.0566C46.2988 48.3923 46.011 49.5372 46.3113 54.5392C46.7743 62.2127 46.9119 65.4838 46.9245 69.0683L46.937 72.9528L46.5991 73.5116C46.011 74.4793 44.6971 74.7791 43.8712 74.1249C43.696 73.9886 43.4207 73.5797 43.2455 73.1981C42.9327 72.5302 42.9327 72.503 42.9452 69.1228C42.9577 65.4565 43.0828 62.7715 43.5709 55.8068C43.8587 51.6225 43.8712 51.2545 43.696 50.1505C43.4833 48.7875 43.1204 48.106 42.2569 47.4518C41.1808 46.6477 40.3924 45.6936 40.1922 44.9167C39.8919 43.8264 39.8919 34.0948 40.1922 33.6451C40.6052 33.0045 41.2183 32.9772 41.7189 33.5633ZM68.1472 33.2089C72.4143 33.7814 76.6188 35.9894 79.3593 39.0969L80.01 39.8193L80.0725 41.523C80.1852 44.467 81.0361 46.7567 82.7379 48.7466C83.251 49.3327 83.7515 50.0414 83.8641 50.314C84.0518 50.8183 84.0393 51.5407 83.6139 60.6044C83.5513 61.831 83.5137 61.9673 82.9131 63.2621C81.1612 67.0375 78.183 70.2677 74.6417 72.244C68.1222 75.8695 60.2137 75.0517 54.395 70.1451C52.3303 68.4005 50.5283 66.0971 49.3145 63.671L48.7639 62.5807L48.5637 58.9007C48.4511 56.8699 48.3134 54.4165 48.2509 53.4488C48.1508 51.7997 48.2259 50.2459 48.4386 49.6598C48.4886 49.5235 48.8515 49.1828 49.2394 48.8966C50.0904 48.2696 51.0164 47.2065 51.3542 46.4841C51.8923 45.3256 52.0049 44.576 52.0049 42.1363V39.792L52.9184 38.8516C55.9592 35.6622 59.9134 33.6587 64.1429 33.168C65.094 33.059 67.1462 33.0863 68.1472 33.2089ZM88.6317 33.4951C89.5077 33.9586 90.5713 35.1988 91.0969 36.371C91.8101 37.9929 91.9728 38.8788 91.9728 41.0459C91.9728 42.7905 91.9478 43.0495 91.6224 44.0444C91.172 45.4619 90.6089 46.4569 89.5577 47.6835C88.0561 49.4281 87.9685 49.7825 88.1562 53.4488C88.3564 57.306 88.6443 65.3475 88.7318 69.5317C88.8069 72.9528 88.8069 73.0891 88.5567 73.5252C88.2313 74.0704 87.5931 74.5065 87.1051 74.5065C86.5545 74.5065 85.9038 74.0976 85.5659 73.5525L85.2656 73.0754L85.3407 69.5999C85.4533 65.2384 85.7411 57.0334 85.9288 53.4488C86.1165 49.7825 86.0289 49.4281 84.5273 47.6835C83.4762 46.4569 82.9131 45.4619 82.4626 44.0444C82.1373 43.0495 82.1122 42.7905 82.1122 41.0459C82.1122 38.9606 82.2749 38.0611 82.9006 36.5618C83.5638 34.9808 84.7651 33.686 85.9664 33.2634C86.6796 33.0045 87.8934 33.1135 88.6317 33.4951Z" fill="#FDB900"/>
<path d="M64.1429 43.0767C61.8029 43.6219 59.8884 44.8486 58.3868 46.7703C55.5462 50.4231 55.2334 55.7114 57.636 59.6912C61.1147 65.511 68.5852 66.3697 73.0775 61.4767C77.5699 56.5836 76.7815 48.4468 71.4383 44.6578C70.4998 43.9763 69.6489 43.581 68.3975 43.1994C67.4215 42.9132 65.144 42.845 64.1429 43.0767ZM67.7093 45.2711C70.3871 45.8708 72.8273 48.3105 73.6657 51.2C74.5416 54.2394 73.7658 57.5922 71.651 59.9365C68.5352 63.3575 63.5298 63.3575 60.3764 59.9365C57.2355 56.5019 57.2355 51.0637 60.3764 47.6699C62.3535 45.5164 65.0064 44.6578 67.7093 45.2711Z" fill="#FDB900"/>
<path d="M143.593 27.6294C143.404 27.2102 143.273 26.8959 143.2 26.6867C143.138 26.4504 143.107 26.1647 143.11 25.8298C143.147 25.2329 143.741 24.6534 144.891 24.0911C145.753 23.6694 146.434 23.5257 146.933 23.6598C147.354 23.7657 147.693 24.0785 147.949 24.5983C148.05 24.7718 148.178 25.0317 148.334 25.378L152.656 34.9475C152.845 35.3667 152.971 35.6945 153.034 35.9308C153.107 36.1401 153.133 36.4166 153.113 36.7603C153.093 37.3484 152.508 37.9236 151.358 38.4858C150.226 39.0393 149.424 39.1314 148.95 38.7623C148.701 38.5504 148.513 38.3529 148.386 38.17C148.278 37.9783 148.125 37.6637 147.927 37.2262L143.593 27.6294ZM145.729 20.4102C145.718 20.7268 145.567 21.0233 145.275 21.2996C144.983 21.5759 144.55 21.8546 143.975 22.1357C143.418 22.408 142.944 22.573 142.553 22.6305C142.162 22.6881 141.833 22.6153 141.566 22.4122C141.317 22.2003 141.129 22.0028 141.003 21.8199C140.886 21.61 140.733 21.2954 140.543 20.8761C140.354 20.4569 140.223 20.1426 140.151 19.9333C140.088 19.697 140.062 19.4206 140.072 19.1039C140.101 18.4887 140.691 17.9 141.841 17.3378C142.973 16.7843 143.767 16.6966 144.223 17.0745C144.49 17.2776 144.682 17.4842 144.799 17.6941C144.925 17.8771 145.083 18.1781 145.272 18.5974C145.462 19.0166 145.588 19.3444 145.65 19.5807C145.723 19.79 145.749 20.0665 145.729 20.4102ZM157.273 18.0036C159.069 17.1251 160.878 17.0977 162.697 17.9214C164.527 18.718 165.894 20.1189 166.799 22.1239L168.973 26.936C169.162 27.3552 169.288 27.683 169.351 27.9193C169.423 28.1286 169.454 28.3916 169.444 28.7083C169.415 29.3234 168.825 29.9121 167.675 30.4743C166.399 31.0981 165.51 31.1211 165.008 30.5433C164.761 30.2861 164.497 29.8477 164.217 29.2279L162.044 24.4159C161.706 23.6685 161.227 23.1907 160.607 22.9823C160.004 22.7651 159.344 22.8322 158.625 23.1836C157.924 23.5263 157.448 24.0261 157.196 24.6832C156.963 25.3315 157.006 26.0111 157.327 26.722L159.513 31.5614C159.702 31.9806 159.828 32.3084 159.891 32.5447C159.964 32.754 159.986 33.0213 159.957 33.3468C159.946 33.9532 159.365 34.5375 158.215 35.0997C157.083 35.6532 156.281 35.7453 155.807 35.3762C155.557 35.1643 155.37 34.9668 155.243 34.7839C155.126 34.574 154.973 34.2594 154.784 33.8401L150.413 24.1613C150.232 23.7603 150.105 23.4552 150.033 23.2459C149.97 23.0096 149.953 22.7287 149.981 22.4032C150.027 21.8245 150.616 21.2585 151.748 20.705C152.844 20.1691 153.612 20.0493 154.053 20.3455C154.373 20.5675 154.631 20.8973 154.829 21.3347C154.843 21.172 154.922 20.9107 155.067 20.5507C155.211 20.1908 155.368 19.8808 155.535 19.6207C155.957 18.9028 156.536 18.3638 157.273 18.0036Z" fill="#FDB900"/>
<path d="M182.806 50.4255L180.88 50.0944L180.464 54.2135C180.41 54.7507 180.45 55.1474 180.585 55.4036C180.74 55.6619 181.046 55.8161 181.503 55.866C181.981 55.9181 182.336 55.9771 182.571 56.043C182.827 56.0911 183.087 56.21 183.349 56.3996C183.78 56.7082 183.942 57.3998 183.833 58.4743C183.707 59.728 183.351 60.4637 182.766 60.6815C182.454 60.7882 182.177 60.8484 181.934 60.8621C181.713 60.8582 181.384 60.8323 180.947 60.7845C178.879 60.5587 177.356 59.9195 176.376 58.867C175.397 57.8145 175.02 56.1739 175.245 53.9452L175.69 49.5276C175.307 49.546 174.896 49.5314 174.459 49.4836C174.021 49.4358 173.671 49.2265 173.406 48.8557C173.162 48.487 173.081 47.8947 173.164 47.0788C173.246 46.263 173.355 45.6814 173.49 45.3341C173.628 44.9668 173.794 44.7134 173.989 44.5738C174.333 44.3498 174.744 44.2639 175.221 44.316L176.193 44.5429L176.503 41.4685C176.55 41.0108 176.594 40.6736 176.636 40.4569C176.697 40.2424 176.821 40.0144 177.006 39.7731C177.315 39.3039 178.105 39.1387 179.378 39.2777C180.73 39.4254 181.498 39.8814 181.682 40.6459C181.749 40.9752 181.748 41.488 181.677 42.1845L181.382 45.1097C182.265 45.1256 182.925 45.1575 183.363 45.2052C183.82 45.2552 184.156 45.312 184.371 45.3757C184.607 45.4216 184.867 45.5405 185.149 45.7323C185.64 46.0474 185.821 46.8417 185.692 48.1153C185.566 49.3689 185.22 50.1057 184.655 50.3257C184.343 50.4324 184.066 50.4926 183.823 50.5064C183.602 50.5024 183.263 50.4754 182.806 50.4255ZM196.312 46.6196C198.3 46.8367 199.874 47.7731 201.034 49.4288C202.214 51.0866 202.693 53.0099 202.472 55.1988L201.942 60.4522C201.896 60.9098 201.841 61.2559 201.777 61.4903C201.735 61.7071 201.62 61.956 201.43 62.2371C201.12 62.7262 200.328 62.9013 199.056 62.7623C197.843 62.6299 197.114 62.2887 196.868 61.7387C196.739 61.4229 196.666 61.1434 196.651 60.9003C196.655 60.6593 196.681 60.3 196.729 59.8224L197.256 54.599C197.338 53.7831 197.174 53.1214 196.763 52.6137C196.352 52.1061 195.788 51.8132 195.073 51.735C194.377 51.659 193.738 51.8106 193.157 52.1898C192.578 52.549 192.222 52.9929 192.088 53.5215L191.504 59.3121C191.458 59.7698 191.403 60.1159 191.339 60.3503C191.297 60.567 191.182 60.816 190.993 61.0971C190.682 61.5862 189.89 61.7613 188.618 61.6223C187.365 61.4855 186.627 61.1333 186.403 60.5656C186.294 60.2519 186.23 59.9835 186.213 59.7602C186.215 59.5392 186.24 59.1899 186.288 58.7123L188.089 40.8629C188.135 40.4052 188.179 40.068 188.221 39.8513C188.285 39.6168 188.4 39.3679 188.568 39.1045C188.9 38.5976 189.703 38.4137 190.975 38.5527C192.228 38.6895 192.956 39.0406 193.16 39.6061C193.289 39.922 193.352 40.2004 193.348 40.4414C193.365 40.6646 193.351 41.005 193.305 41.4627L192.639 48.0592C193.756 46.954 194.98 46.4741 196.312 46.6196ZM220.211 55.2351C220.089 56.449 219.69 57.3207 219.013 57.8504C218.358 58.3623 217.663 58.5781 216.928 58.4977L209.86 57.7258C209.803 58.283 210.084 58.7864 210.702 59.2361C211.32 59.6859 211.957 59.9466 212.613 60.0182C213.766 60.1442 214.683 60.1236 215.363 59.9565L215.703 59.8729C216.203 59.7061 216.611 59.6401 216.929 59.6749C217.566 59.7443 218.067 60.2518 218.434 61.1972C218.638 61.7627 218.722 62.2345 218.683 62.6126C218.505 64.3836 216.298 65.0378 212.063 64.5753C210.592 64.4146 209.305 64.0226 208.202 63.3991C207.121 62.758 206.304 61.9848 205.752 61.0795C204.662 59.3309 204.218 57.4617 204.419 55.4718C204.671 52.9645 205.678 51.0526 207.439 49.736C209.222 48.4018 211.326 47.8671 213.752 48.132C216.516 48.4339 218.445 49.6304 219.541 51.7216C220.112 52.8302 220.336 54.0014 220.211 55.2351ZM213.832 55.4135C214.587 55.496 214.997 55.2188 215.061 54.5821C215.107 54.1244 214.966 53.7367 214.636 53.4191C214.326 53.1036 213.843 52.91 213.187 52.8383C212.551 52.7688 211.887 52.968 211.197 53.4358C210.508 53.8837 210.134 54.4061 210.074 55.0031L213.832 55.4135Z" fill="#FDB900"/>
</svg>
